<mxfile host="app.diagrams.net" modified="2021-11-02T00:48:26.198Z" agent="5.0 (Windows NT 10.0; Win64; x64) AppleWebKit/537.36 (KHTML, like Gecko) Chrome/95.0.4638.54 Safari/537.36" etag="ZH5h7lXSnFgFVJSuifSm" version="15.6.5" type="github">
  <diagram id="pm0KyGwDIg-Bs8ifSs3f" name="Page-1">
    <mxGraphModel dx="1420" dy="802" grid="1" gridSize="10" guides="1" tooltips="1" connect="1" arrows="1" fold="1" page="1" pageScale="1" pageWidth="827" pageHeight="1169" background="#F4F1DE" math="0" shadow="0">
      <root>
        <mxCell id="0" />
        <mxCell id="1" parent="0" />
        <mxCell id="i2rfmJk4JtvdybACD0-p-4" value="" style="html=1;shadow=0;dashed=0;align=center;verticalAlign=middle;shape=mxgraph.arrows2.arrow;dy=0;dx=10;notch=0;rounded=0;sketch=0;fontSize=36;fontColor=#393C56;strokeColor=#E07A5F;fillColor=#F2CC8F;" parent="1" vertex="1">
          <mxGeometry x="400" y="380" width="100" height="10" as="geometry" />
        </mxCell>
        <mxCell id="i2rfmJk4JtvdybACD0-p-5" value="" style="verticalLabelPosition=bottom;align=center;html=1;verticalAlign=top;pointerEvents=1;dashed=0;shape=mxgraph.pid2valves.valve;valveType=gate;rounded=0;sketch=0;fontSize=36;fontColor=#393C56;strokeColor=#E07A5F;fillColor=#F2CC8F;" parent="1" vertex="1">
          <mxGeometry x="490" y="372.5" width="50" height="25" as="geometry" />
        </mxCell>
        <mxCell id="i2rfmJk4JtvdybACD0-p-6" value="" style="html=1;shadow=0;dashed=0;align=center;verticalAlign=middle;shape=mxgraph.arrows2.arrow;dy=0;dx=10;notch=0;rounded=0;sketch=0;fontSize=36;fontColor=#393C56;strokeColor=#E07A5F;fillColor=#F2CC8F;" parent="1" vertex="1">
          <mxGeometry x="540" y="380" width="90" height="10" as="geometry" />
        </mxCell>
        <mxCell id="i2rfmJk4JtvdybACD0-p-8" value="" style="html=1;shadow=0;dashed=0;align=center;verticalAlign=middle;shape=mxgraph.arrows2.arrow;dy=0;dx=10;notch=0;rounded=0;sketch=0;fontSize=36;fontColor=#393C56;strokeColor=#E07A5F;fillColor=#F2CC8F;rotation=90;" parent="1" vertex="1">
          <mxGeometry x="550" y="410" width="50" height="10" as="geometry" />
        </mxCell>
        <mxCell id="i2rfmJk4JtvdybACD0-p-11" value="" style="html=1;shadow=0;dashed=0;align=center;verticalAlign=middle;shape=mxgraph.arrows2.arrow;dy=0;dx=10;notch=0;rounded=0;sketch=0;fontSize=36;fontColor=#393C56;strokeColor=#E07A5F;fillColor=#F2CC8F;rotation=90;" parent="1" vertex="1">
          <mxGeometry x="545" y="490" width="60" height="10" as="geometry" />
        </mxCell>
        <mxCell id="i2rfmJk4JtvdybACD0-p-13" value="" style="verticalLabelPosition=bottom;align=center;html=1;verticalAlign=top;pointerEvents=1;dashed=0;shape=mxgraph.pid2valves.valve;valveType=gate;rounded=0;sketch=0;fontSize=36;fontColor=#393C56;strokeColor=#E07A5F;fillColor=#F2CC8F;rotation=90;" parent="1" vertex="1">
          <mxGeometry x="547.5" y="437.5" width="50" height="30" as="geometry" />
        </mxCell>
        <mxCell id="i2rfmJk4JtvdybACD0-p-14" value="" style="html=1;shadow=0;dashed=0;align=center;verticalAlign=middle;shape=mxgraph.arrows2.arrow;dy=0;dx=10;notch=0;rounded=0;sketch=0;fontSize=36;fontColor=#393C56;strokeColor=#E07A5F;fillColor=#F2CC8F;rotation=0;" parent="1" vertex="1">
          <mxGeometry x="570" y="515" width="110" height="10" as="geometry" />
        </mxCell>
        <mxCell id="i2rfmJk4JtvdybACD0-p-18" value="" style="html=1;shadow=0;dashed=0;align=center;verticalAlign=middle;shape=mxgraph.arrows2.arrow;dy=0;dx=10;notch=0;rounded=0;sketch=0;fontSize=36;fontColor=#393C56;strokeColor=#E07A5F;fillColor=#F2CC8F;rotation=0;" parent="1" vertex="1">
          <mxGeometry x="620" y="440" width="60" height="10" as="geometry" />
        </mxCell>
        <mxCell id="i2rfmJk4JtvdybACD0-p-19" value="" style="html=1;shadow=0;dashed=0;align=center;verticalAlign=middle;shape=mxgraph.arrows2.arrow;dy=0;dx=10;notch=0;rounded=0;sketch=0;fontSize=36;fontColor=#393C56;strokeColor=#E07A5F;fillColor=#F2CC8F;rotation=0;" parent="1" vertex="1">
          <mxGeometry x="630" y="380" width="50" height="10" as="geometry" />
        </mxCell>
        <mxCell id="i2rfmJk4JtvdybACD0-p-25" value="&lt;font style=&quot;font-size: 18px&quot;&gt;MFC&lt;/font&gt;" style="shape=loopLimit;whiteSpace=wrap;html=1;rounded=0;sketch=0;fontSize=36;fontColor=#393C56;strokeColor=#E07A5F;strokeWidth=1;fillColor=#F2CC8F;" parent="1" vertex="1">
          <mxGeometry x="670" y="347.5" width="60" height="42.5" as="geometry" />
        </mxCell>
        <mxCell id="i2rfmJk4JtvdybACD0-p-26" value="&lt;font style=&quot;font-size: 18px&quot;&gt;MFC&lt;/font&gt;" style="shape=loopLimit;whiteSpace=wrap;html=1;rounded=0;sketch=0;fontSize=36;fontColor=#393C56;strokeColor=#E07A5F;strokeWidth=1;fillColor=#F2CC8F;" parent="1" vertex="1">
          <mxGeometry x="670" y="410" width="60" height="42.5" as="geometry" />
        </mxCell>
        <mxCell id="i2rfmJk4JtvdybACD0-p-27" value="&lt;font style=&quot;font-size: 18px&quot;&gt;MFC&lt;/font&gt;" style="shape=loopLimit;whiteSpace=wrap;html=1;rounded=0;sketch=0;fontSize=36;fontColor=#393C56;strokeColor=#E07A5F;strokeWidth=1;fillColor=#F2CC8F;" parent="1" vertex="1">
          <mxGeometry x="670" y="482.5" width="60" height="42.5" as="geometry" />
        </mxCell>
        <mxCell id="i2rfmJk4JtvdybACD0-p-28" value="" style="html=1;shadow=0;dashed=0;align=center;verticalAlign=middle;shape=mxgraph.arrows2.arrow;dy=0;dx=10;notch=0;rounded=0;sketch=0;fontSize=36;fontColor=#393C56;strokeColor=#E07A5F;fillColor=#F2CC8F;rotation=90;" parent="1" vertex="1">
          <mxGeometry x="580" y="352.5" width="90" height="10" as="geometry" />
        </mxCell>
        <mxCell id="i2rfmJk4JtvdybACD0-p-29" value="" style="html=1;shadow=0;dashed=0;align=center;verticalAlign=middle;shape=mxgraph.arrows2.arrow;dy=0;dx=10;notch=0;rounded=0;sketch=0;fontSize=36;fontColor=#393C56;strokeColor=#E07A5F;fillColor=#F2CC8F;rotation=90;" parent="1" vertex="1">
          <mxGeometry x="590" y="410" width="70" height="10" as="geometry" />
        </mxCell>
        <mxCell id="i2rfmJk4JtvdybACD0-p-31" value="" style="html=1;shadow=0;dashed=0;align=center;verticalAlign=middle;shape=mxgraph.arrows2.arrow;dy=0;dx=10;notch=0;rounded=0;sketch=0;fontSize=36;fontColor=#393C56;strokeColor=#E07A5F;fillColor=#F2CC8F;rotation=0;" parent="1" vertex="1">
          <mxGeometry x="630" y="312.5" width="50" height="10" as="geometry" />
        </mxCell>
        <mxCell id="i2rfmJk4JtvdybACD0-p-32" value="&lt;font style=&quot;font-size: 18px&quot;&gt;MFC&lt;/font&gt;" style="shape=loopLimit;whiteSpace=wrap;html=1;rounded=0;sketch=0;fontSize=36;fontColor=#393C56;strokeColor=#E07A5F;strokeWidth=1;fillColor=#F2CC8F;" parent="1" vertex="1">
          <mxGeometry x="670" y="280" width="60" height="42.5" as="geometry" />
        </mxCell>
        <mxCell id="i2rfmJk4JtvdybACD0-p-33" value="" style="html=1;shadow=0;dashed=0;align=center;verticalAlign=middle;shape=mxgraph.arrows2.arrow;dy=0;dx=10;notch=0;rounded=0;sketch=0;fontSize=36;fontColor=#393C56;strokeColor=#E07A5F;fillColor=#F2CC8F;rotation=0;" parent="1" vertex="1">
          <mxGeometry x="730" y="515" width="70" height="10" as="geometry" />
        </mxCell>
        <mxCell id="i2rfmJk4JtvdybACD0-p-34" value="" style="html=1;shadow=0;dashed=0;align=center;verticalAlign=middle;shape=mxgraph.arrows2.arrow;dy=0;dx=10;notch=0;rounded=0;sketch=0;fontSize=36;fontColor=#393C56;strokeColor=#E07A5F;fillColor=#F2CC8F;rotation=0;" parent="1" vertex="1">
          <mxGeometry x="730" y="440" width="110" height="10" as="geometry" />
        </mxCell>
        <mxCell id="i2rfmJk4JtvdybACD0-p-35" value="" style="html=1;shadow=0;dashed=0;align=center;verticalAlign=middle;shape=mxgraph.arrows2.arrow;dy=0;dx=10;notch=0;rounded=0;sketch=0;fontSize=36;fontColor=#393C56;strokeColor=#E07A5F;fillColor=#F2CC8F;rotation=0;" parent="1" vertex="1">
          <mxGeometry x="730" y="380" width="160" height="10" as="geometry" />
        </mxCell>
        <mxCell id="i2rfmJk4JtvdybACD0-p-36" value="" style="html=1;shadow=0;dashed=0;align=center;verticalAlign=middle;shape=mxgraph.arrows2.arrow;dy=0;dx=10;notch=0;rounded=0;sketch=0;fontSize=36;fontColor=#393C56;strokeColor=#E07A5F;fillColor=#F2CC8F;rotation=0;" parent="1" vertex="1">
          <mxGeometry x="730" y="312.5" width="210" height="10" as="geometry" />
        </mxCell>
        <mxCell id="i2rfmJk4JtvdybACD0-p-37" value="" style="html=1;shadow=0;dashed=0;align=center;verticalAlign=middle;shape=mxgraph.arrows2.arrow;dy=0;dx=10;notch=0;rounded=0;sketch=0;fontSize=36;fontColor=#393C56;strokeColor=#E07A5F;fillColor=#F2CC8F;rotation=90;" parent="1" vertex="1">
          <mxGeometry x="150" y="570" width="180" height="10" as="geometry" />
        </mxCell>
        <mxCell id="i2rfmJk4JtvdybACD0-p-39" value="Bomba de vÃ¡cuo&lt;br&gt;" style="verticalLabelPosition=bottom;outlineConnect=0;align=center;dashed=0;html=1;verticalAlign=top;shape=mxgraph.pid.compressors.ac_air_compressor;rounded=0;sketch=0;fontSize=18;fontColor=#393C56;strokeColor=#E07A5F;strokeWidth=1;fillColor=#F2CC8F;" parent="1" vertex="1">
          <mxGeometry x="150" y="625" width="100" height="65" as="geometry" />
        </mxCell>
        <mxCell id="i2rfmJk4JtvdybACD0-p-41" value="CH4" style="shape=mxgraph.pid.vessels.gas_bottle;html=1;pointerEvents=1;align=center;verticalLabelPosition=bottom;verticalAlign=top;dashed=0;rounded=0;sketch=0;fontSize=11;fontColor=#393C56;strokeColor=#E07A5F;strokeWidth=1;fillColor=#F2CC8F;" parent="1" vertex="1">
          <mxGeometry x="780" y="515" width="35" height="95" as="geometry" />
        </mxCell>
        <mxCell id="i2rfmJk4JtvdybACD0-p-42" value="Ar" style="shape=mxgraph.pid.vessels.gas_bottle;html=1;pointerEvents=1;align=center;verticalLabelPosition=bottom;verticalAlign=top;dashed=0;rounded=0;sketch=0;fontSize=11;fontColor=#393C56;strokeColor=#E07A5F;strokeWidth=1;fillColor=#F2CC8F;" parent="1" vertex="1">
          <mxGeometry x="822.5" y="440" width="35" height="95" as="geometry" />
        </mxCell>
        <mxCell id="i2rfmJk4JtvdybACD0-p-43" value="H&lt;font style=&quot;font-size: 6px&quot;&gt;2&lt;/font&gt;" style="shape=mxgraph.pid.vessels.gas_bottle;html=1;pointerEvents=1;align=center;verticalLabelPosition=bottom;verticalAlign=top;dashed=0;rounded=0;sketch=0;fontSize=11;fontColor=#393C56;strokeColor=#E07A5F;strokeWidth=1;fillColor=#F2CC8F;" parent="1" vertex="1">
          <mxGeometry x="870" y="380" width="35" height="95" as="geometry" />
        </mxCell>
        <mxCell id="i2rfmJk4JtvdybACD0-p-44" value="N&lt;font style=&quot;font-size: 6px&quot;&gt;2&lt;/font&gt;" style="shape=mxgraph.pid.vessels.gas_bottle;html=1;pointerEvents=1;align=center;verticalLabelPosition=bottom;verticalAlign=top;dashed=0;rounded=0;sketch=0;fontSize=11;fontColor=#393C56;strokeColor=#E07A5F;strokeWidth=1;fillColor=#F2CC8F;" parent="1" vertex="1">
          <mxGeometry x="920" y="312.5" width="35" height="95" as="geometry" />
        </mxCell>
        <mxCell id="i2rfmJk4JtvdybACD0-p-48" style="edgeStyle=orthogonalEdgeStyle;curved=0;rounded=1;sketch=0;orthogonalLoop=1;jettySize=auto;html=1;entryX=0.473;entryY=0.667;entryDx=0;entryDy=0;entryPerimeter=0;fontSize=12;fontColor=#393C56;strokeColor=#E07A5F;fillColor=#F2CC8F;" parent="1" source="i2rfmJk4JtvdybACD0-p-46" target="i2rfmJk4JtvdybACD0-p-5" edge="1">
          <mxGeometry relative="1" as="geometry" />
        </mxCell>
        <mxCell id="i2rfmJk4JtvdybACD0-p-49" style="edgeStyle=orthogonalEdgeStyle;curved=0;rounded=1;sketch=0;orthogonalLoop=1;jettySize=auto;html=1;entryX=0.45;entryY=0.583;entryDx=0;entryDy=0;entryPerimeter=0;fontSize=12;fontColor=#393C56;strokeColor=#E07A5F;fillColor=#F2CC8F;" parent="1" source="i2rfmJk4JtvdybACD0-p-46" target="i2rfmJk4JtvdybACD0-p-13" edge="1">
          <mxGeometry relative="1" as="geometry" />
        </mxCell>
        <mxCell id="i2rfmJk4JtvdybACD0-p-46" value="&lt;font style=&quot;font-size: 12px&quot;&gt;VÃ¡lvula de gÃ¡s&lt;/font&gt;" style="text;html=1;align=center;verticalAlign=middle;resizable=0;points=[];autosize=1;strokeColor=none;fillColor=none;fontSize=6;fontColor=#393C56;" parent="1" vertex="1">
          <mxGeometry x="450" y="444.5" width="90" height="10" as="geometry" />
        </mxCell>
        <mxCell id="fzmC69lv0-OHPau7h5W_-1" value="" style="html=1;shadow=0;dashed=0;align=center;verticalAlign=middle;shape=mxgraph.arrows2.arrow;dy=0;dx=10;notch=0;rounded=0;sketch=0;fontSize=36;fontColor=default;strokeColor=#E07A5F;fillColor=#F2CC8F;rotation=90;" vertex="1" parent="1">
          <mxGeometry x="345" y="500" width="50" height="10" as="geometry" />
        </mxCell>
        <mxCell id="fzmC69lv0-OHPau7h5W_-2" value="&lt;font style=&quot;font-size: 36px&quot;&gt;CÃ¢mara de vÃ¡cuo&lt;/font&gt;" style="shape=cylinder3;whiteSpace=wrap;html=1;boundedLbl=1;backgroundOutline=1;size=15;rounded=0;sketch=0;fontColor=#393C56;strokeColor=#E07A5F;fillColor=#F2CC8F;" vertex="1" parent="1">
          <mxGeometry x="220" y="280" width="180" height="210" as="geometry" />
        </mxCell>
        <mxCell id="fzmC69lv0-OHPau7h5W_-3" value="&lt;font style=&quot;font-size: 18px&quot;&gt;Pirani&lt;/font&gt;" style="rounded=0;whiteSpace=wrap;html=1;strokeColor=#d79b00;fillColor=#F2CC8F;fontColor=default;" vertex="1" parent="1">
          <mxGeometry x="330" y="520" width="80" height="40" as="geometry" />
        </mxCell>
        <mxCell id="fzmC69lv0-OHPau7h5W_-37" value="" style="html=1;shadow=0;dashed=0;align=center;verticalAlign=middle;shape=mxgraph.arrows2.arrow;dy=0;dx=10;notch=0;rounded=0;sketch=0;fontSize=36;fontColor=#393C56;strokeColor=#E07A5F;fillColor=#F2CC8F;" vertex="1" parent="1">
          <mxGeometry x="1590" y="380" width="100" height="10" as="geometry" />
        </mxCell>
        <mxCell id="fzmC69lv0-OHPau7h5W_-38" value="" style="verticalLabelPosition=bottom;align=center;html=1;verticalAlign=top;pointerEvents=1;dashed=0;shape=mxgraph.pid2valves.valve;valveType=gate;rounded=0;sketch=0;fontSize=36;fontColor=#393C56;strokeColor=#E07A5F;fillColor=#F2CC8F;" vertex="1" parent="1">
          <mxGeometry x="1680" y="372.5" width="50" height="25" as="geometry" />
        </mxCell>
        <mxCell id="fzmC69lv0-OHPau7h5W_-39" value="" style="html=1;shadow=0;dashed=0;align=center;verticalAlign=middle;shape=mxgraph.arrows2.arrow;dy=0;dx=10;notch=0;rounded=0;sketch=0;fontSize=36;fontColor=#393C56;strokeColor=#E07A5F;fillColor=#F2CC8F;" vertex="1" parent="1">
          <mxGeometry x="1730" y="380" width="90" height="10" as="geometry" />
        </mxCell>
        <mxCell id="fzmC69lv0-OHPau7h5W_-40" value="" style="html=1;shadow=0;dashed=0;align=center;verticalAlign=middle;shape=mxgraph.arrows2.arrow;dy=0;dx=10;notch=0;rounded=0;sketch=0;fontSize=36;fontColor=#393C56;strokeColor=#E07A5F;fillColor=#F2CC8F;rotation=90;" vertex="1" parent="1">
          <mxGeometry x="1740" y="410" width="50" height="10" as="geometry" />
        </mxCell>
        <mxCell id="fzmC69lv0-OHPau7h5W_-41" value="" style="html=1;shadow=0;dashed=0;align=center;verticalAlign=middle;shape=mxgraph.arrows2.arrow;dy=0;dx=10;notch=0;rounded=0;sketch=0;fontSize=36;fontColor=#393C56;strokeColor=#E07A5F;fillColor=#F2CC8F;rotation=90;" vertex="1" parent="1">
          <mxGeometry x="1735" y="490" width="60" height="10" as="geometry" />
        </mxCell>
        <mxCell id="fzmC69lv0-OHPau7h5W_-42" value="" style="verticalLabelPosition=bottom;align=center;html=1;verticalAlign=top;pointerEvents=1;dashed=0;shape=mxgraph.pid2valves.valve;valveType=gate;rounded=0;sketch=0;fontSize=36;fontColor=#393C56;strokeColor=#E07A5F;fillColor=#F2CC8F;rotation=90;" vertex="1" parent="1">
          <mxGeometry x="1737.5" y="437.5" width="50" height="30" as="geometry" />
        </mxCell>
        <mxCell id="fzmC69lv0-OHPau7h5W_-43" value="" style="html=1;shadow=0;dashed=0;align=center;verticalAlign=middle;shape=mxgraph.arrows2.arrow;dy=0;dx=10;notch=0;rounded=0;sketch=0;fontSize=36;fontColor=#393C56;strokeColor=#E07A5F;fillColor=#F2CC8F;rotation=0;" vertex="1" parent="1">
          <mxGeometry x="1760" y="515" width="110" height="10" as="geometry" />
        </mxCell>
        <mxCell id="fzmC69lv0-OHPau7h5W_-44" value="" style="html=1;shadow=0;dashed=0;align=center;verticalAlign=middle;shape=mxgraph.arrows2.arrow;dy=0;dx=10;notch=0;rounded=0;sketch=0;fontSize=36;fontColor=#393C56;strokeColor=#E07A5F;fillColor=#F2CC8F;rotation=0;" vertex="1" parent="1">
          <mxGeometry x="1810" y="440" width="60" height="10" as="geometry" />
        </mxCell>
        <mxCell id="fzmC69lv0-OHPau7h5W_-45" value="" style="html=1;shadow=0;dashed=0;align=center;verticalAlign=middle;shape=mxgraph.arrows2.arrow;dy=0;dx=10;notch=0;rounded=0;sketch=0;fontSize=36;fontColor=#393C56;strokeColor=#E07A5F;fillColor=#F2CC8F;rotation=0;" vertex="1" parent="1">
          <mxGeometry x="1820" y="380" width="50" height="10" as="geometry" />
        </mxCell>
        <mxCell id="fzmC69lv0-OHPau7h5W_-46" value="&lt;font style=&quot;font-size: 18px&quot;&gt;MFC&lt;/font&gt;" style="shape=loopLimit;whiteSpace=wrap;html=1;rounded=0;sketch=0;fontSize=36;fontColor=#393C56;strokeColor=#E07A5F;strokeWidth=1;fillColor=#F2CC8F;" vertex="1" parent="1">
          <mxGeometry x="1860" y="347.5" width="60" height="42.5" as="geometry" />
        </mxCell>
        <mxCell id="fzmC69lv0-OHPau7h5W_-47" value="&lt;font style=&quot;font-size: 18px&quot;&gt;MFC&lt;/font&gt;" style="shape=loopLimit;whiteSpace=wrap;html=1;rounded=0;sketch=0;fontSize=36;fontColor=#393C56;strokeColor=#E07A5F;strokeWidth=1;fillColor=#F2CC8F;" vertex="1" parent="1">
          <mxGeometry x="1860" y="410" width="60" height="42.5" as="geometry" />
        </mxCell>
        <mxCell id="fzmC69lv0-OHPau7h5W_-48" value="&lt;font style=&quot;font-size: 18px&quot;&gt;MFC&lt;/font&gt;" style="shape=loopLimit;whiteSpace=wrap;html=1;rounded=0;sketch=0;fontSize=36;fontColor=#393C56;strokeColor=#E07A5F;strokeWidth=1;fillColor=#F2CC8F;" vertex="1" parent="1">
          <mxGeometry x="1860" y="482.5" width="60" height="42.5" as="geometry" />
        </mxCell>
        <mxCell id="fzmC69lv0-OHPau7h5W_-49" value="" style="html=1;shadow=0;dashed=0;align=center;verticalAlign=middle;shape=mxgraph.arrows2.arrow;dy=0;dx=10;notch=0;rounded=0;sketch=0;fontSize=36;fontColor=#393C56;strokeColor=#E07A5F;fillColor=#F2CC8F;rotation=90;" vertex="1" parent="1">
          <mxGeometry x="1770" y="352.5" width="90" height="10" as="geometry" />
        </mxCell>
        <mxCell id="fzmC69lv0-OHPau7h5W_-50" value="" style="html=1;shadow=0;dashed=0;align=center;verticalAlign=middle;shape=mxgraph.arrows2.arrow;dy=0;dx=10;notch=0;rounded=0;sketch=0;fontSize=36;fontColor=#393C56;strokeColor=#E07A5F;fillColor=#F2CC8F;rotation=90;" vertex="1" parent="1">
          <mxGeometry x="1780" y="410" width="70" height="10" as="geometry" />
        </mxCell>
        <mxCell id="fzmC69lv0-OHPau7h5W_-51" value="" style="html=1;shadow=0;dashed=0;align=center;verticalAlign=middle;shape=mxgraph.arrows2.arrow;dy=0;dx=10;notch=0;rounded=0;sketch=0;fontSize=36;fontColor=#393C56;strokeColor=#E07A5F;fillColor=#F2CC8F;rotation=0;" vertex="1" parent="1">
          <mxGeometry x="1820" y="312.5" width="50" height="10" as="geometry" />
        </mxCell>
        <mxCell id="fzmC69lv0-OHPau7h5W_-52" value="&lt;font style=&quot;font-size: 18px&quot;&gt;MFC&lt;/font&gt;" style="shape=loopLimit;whiteSpace=wrap;html=1;rounded=0;sketch=0;fontSize=36;fontColor=#393C56;strokeColor=#E07A5F;strokeWidth=1;fillColor=#F2CC8F;" vertex="1" parent="1">
          <mxGeometry x="1860" y="280" width="60" height="42.5" as="geometry" />
        </mxCell>
        <mxCell id="fzmC69lv0-OHPau7h5W_-53" value="" style="html=1;shadow=0;dashed=0;align=center;verticalAlign=middle;shape=mxgraph.arrows2.arrow;dy=0;dx=10;notch=0;rounded=0;sketch=0;fontSize=36;fontColor=#393C56;strokeColor=#E07A5F;fillColor=#F2CC8F;rotation=0;" vertex="1" parent="1">
          <mxGeometry x="1920" y="515" width="70" height="10" as="geometry" />
        </mxCell>
        <mxCell id="fzmC69lv0-OHPau7h5W_-54" value="" style="html=1;shadow=0;dashed=0;align=center;verticalAlign=middle;shape=mxgraph.arrows2.arrow;dy=0;dx=10;notch=0;rounded=0;sketch=0;fontSize=36;fontColor=#393C56;strokeColor=#E07A5F;fillColor=#F2CC8F;rotation=0;" vertex="1" parent="1">
          <mxGeometry x="1920" y="440" width="110" height="10" as="geometry" />
        </mxCell>
        <mxCell id="fzmC69lv0-OHPau7h5W_-55" value="" style="html=1;shadow=0;dashed=0;align=center;verticalAlign=middle;shape=mxgraph.arrows2.arrow;dy=0;dx=10;notch=0;rounded=0;sketch=0;fontSize=36;fontColor=#393C56;strokeColor=#E07A5F;fillColor=#F2CC8F;rotation=0;" vertex="1" parent="1">
          <mxGeometry x="1920" y="380" width="160" height="10" as="geometry" />
        </mxCell>
        <mxCell id="fzmC69lv0-OHPau7h5W_-56" value="" style="html=1;shadow=0;dashed=0;align=center;verticalAlign=middle;shape=mxgraph.arrows2.arrow;dy=0;dx=10;notch=0;rounded=0;sketch=0;fontSize=36;fontColor=#393C56;strokeColor=#E07A5F;fillColor=#F2CC8F;rotation=0;" vertex="1" parent="1">
          <mxGeometry x="1920" y="312.5" width="210" height="10" as="geometry" />
        </mxCell>
        <mxCell id="fzmC69lv0-OHPau7h5W_-57" value="" style="html=1;shadow=0;dashed=0;align=center;verticalAlign=middle;shape=mxgraph.arrows2.arrow;dy=0;dx=10;notch=0;rounded=0;sketch=0;fontSize=36;fontColor=#393C56;strokeColor=#E07A5F;fillColor=#F2CC8F;rotation=90;" vertex="1" parent="1">
          <mxGeometry x="1340" y="570" width="180" height="10" as="geometry" />
        </mxCell>
        <mxCell id="fzmC69lv0-OHPau7h5W_-58" value="Bomba de vÃ¡cuo&lt;br&gt;" style="verticalLabelPosition=bottom;outlineConnect=0;align=center;dashed=0;html=1;verticalAlign=top;shape=mxgraph.pid.compressors.ac_air_compressor;rounded=0;sketch=0;fontSize=18;fontColor=#393C56;strokeColor=#E07A5F;strokeWidth=1;fillColor=#F2CC8F;" vertex="1" parent="1">
          <mxGeometry x="1340" y="625" width="100" height="65" as="geometry" />
        </mxCell>
        <mxCell id="fzmC69lv0-OHPau7h5W_-59" value="CH4" style="shape=mxgraph.pid.vessels.gas_bottle;html=1;pointerEvents=1;align=center;verticalLabelPosition=bottom;verticalAlign=top;dashed=0;rounded=0;sketch=0;fontSize=11;fontColor=#393C56;strokeColor=#E07A5F;strokeWidth=1;fillColor=#F2CC8F;" vertex="1" parent="1">
          <mxGeometry x="1970" y="515" width="35" height="95" as="geometry" />
        </mxCell>
        <mxCell id="fzmC69lv0-OHPau7h5W_-60" value="Ar" style="shape=mxgraph.pid.vessels.gas_bottle;html=1;pointerEvents=1;align=center;verticalLabelPosition=bottom;verticalAlign=top;dashed=0;rounded=0;sketch=0;fontSize=11;fontColor=#393C56;strokeColor=#E07A5F;strokeWidth=1;fillColor=#F2CC8F;" vertex="1" parent="1">
          <mxGeometry x="2012.5" y="440" width="35" height="95" as="geometry" />
        </mxCell>
        <mxCell id="fzmC69lv0-OHPau7h5W_-61" value="H&lt;font style=&quot;font-size: 6px&quot;&gt;2&lt;/font&gt;" style="shape=mxgraph.pid.vessels.gas_bottle;html=1;pointerEvents=1;align=center;verticalLabelPosition=bottom;verticalAlign=top;dashed=0;rounded=0;sketch=0;fontSize=11;fontColor=#393C56;strokeColor=#E07A5F;strokeWidth=1;fillColor=#F2CC8F;" vertex="1" parent="1">
          <mxGeometry x="2060" y="380" width="35" height="95" as="geometry" />
        </mxCell>
        <mxCell id="fzmC69lv0-OHPau7h5W_-62" value="N&lt;font style=&quot;font-size: 6px&quot;&gt;2&lt;/font&gt;" style="shape=mxgraph.pid.vessels.gas_bottle;html=1;pointerEvents=1;align=center;verticalLabelPosition=bottom;verticalAlign=top;dashed=0;rounded=0;sketch=0;fontSize=11;fontColor=#393C56;strokeColor=#E07A5F;strokeWidth=1;fillColor=#F2CC8F;" vertex="1" parent="1">
          <mxGeometry x="2110" y="312.5" width="35" height="95" as="geometry" />
        </mxCell>
        <mxCell id="fzmC69lv0-OHPau7h5W_-63" style="edgeStyle=orthogonalEdgeStyle;curved=0;rounded=1;sketch=0;orthogonalLoop=1;jettySize=auto;html=1;entryX=0.473;entryY=0.667;entryDx=0;entryDy=0;entryPerimeter=0;fontSize=12;fontColor=#393C56;strokeColor=#E07A5F;fillColor=#F2CC8F;" edge="1" parent="1" source="fzmC69lv0-OHPau7h5W_-65" target="fzmC69lv0-OHPau7h5W_-38">
          <mxGeometry relative="1" as="geometry" />
        </mxCell>
        <mxCell id="fzmC69lv0-OHPau7h5W_-64" style="edgeStyle=orthogonalEdgeStyle;curved=0;rounded=1;sketch=0;orthogonalLoop=1;jettySize=auto;html=1;entryX=0.45;entryY=0.583;entryDx=0;entryDy=0;entryPerimeter=0;fontSize=12;fontColor=#393C56;strokeColor=#E07A5F;fillColor=#F2CC8F;" edge="1" parent="1" source="fzmC69lv0-OHPau7h5W_-65" target="fzmC69lv0-OHPau7h5W_-42">
          <mxGeometry relative="1" as="geometry" />
        </mxCell>
        <mxCell id="fzmC69lv0-OHPau7h5W_-65" value="&lt;font style=&quot;font-size: 12px&quot;&gt;VÃ¡lvula de gÃ¡s&lt;/font&gt;" style="text;html=1;align=center;verticalAlign=middle;resizable=0;points=[];autosize=1;strokeColor=none;fillColor=none;fontSize=6;fontColor=#393C56;" vertex="1" parent="1">
          <mxGeometry x="1640" y="444.5" width="90" height="10" as="geometry" />
        </mxCell>
        <mxCell id="fzmC69lv0-OHPau7h5W_-66" value="" style="html=1;shadow=0;dashed=0;align=center;verticalAlign=middle;shape=mxgraph.arrows2.arrow;dy=0;dx=10;notch=0;rounded=0;sketch=0;fontSize=36;fontColor=default;strokeColor=#E07A5F;fillColor=#F2CC8F;rotation=90;" vertex="1" parent="1">
          <mxGeometry x="1535" y="500" width="50" height="10" as="geometry" />
        </mxCell>
        <mxCell id="fzmC69lv0-OHPau7h5W_-67" value="&lt;font style=&quot;font-size: 36px&quot;&gt;CÃ¢mara de vÃ¡cuo&lt;/font&gt;" style="shape=cylinder3;whiteSpace=wrap;html=1;boundedLbl=1;backgroundOutline=1;size=15;rounded=0;sketch=0;fontColor=#393C56;strokeColor=#E07A5F;fillColor=#F2CC8F;" vertex="1" parent="1">
          <mxGeometry x="1410" y="280" width="180" height="210" as="geometry" />
        </mxCell>
        <mxCell id="fzmC69lv0-OHPau7h5W_-68" value="&lt;font style=&quot;font-size: 18px&quot;&gt;Pirani&lt;/font&gt;" style="rounded=0;whiteSpace=wrap;html=1;strokeColor=#d79b00;fillColor=#F2CC8F;fontColor=default;" vertex="1" parent="1">
          <mxGeometry x="1520" y="520" width="80" height="40" as="geometry" />
        </mxCell>
        <mxCell id="fzmC69lv0-OHPau7h5W_-75" style="edgeStyle=orthogonalEdgeStyle;rounded=0;orthogonalLoop=1;jettySize=auto;html=1;entryX=0.5;entryY=1;entryDx=0;entryDy=0;labelBackgroundColor=default;fontSize=16;fontColor=default;strokeColor=default;strokeWidth=3;" edge="1" parent="1" source="fzmC69lv0-OHPau7h5W_-69" target="fzmC69lv0-OHPau7h5W_-70">
          <mxGeometry relative="1" as="geometry" />
        </mxCell>
        <mxCell id="fzmC69lv0-OHPau7h5W_-77" style="edgeStyle=orthogonalEdgeStyle;rounded=0;orthogonalLoop=1;jettySize=auto;html=1;entryX=1;entryY=0.5;entryDx=0;entryDy=0;labelBackgroundColor=default;fontSize=16;fontColor=default;strokeColor=default;strokeWidth=3;" edge="1" parent="1" source="fzmC69lv0-OHPau7h5W_-69" target="fzmC69lv0-OHPau7h5W_-73">
          <mxGeometry relative="1" as="geometry">
            <Array as="points">
              <mxPoint x="1771" y="540" />
            </Array>
          </mxGeometry>
        </mxCell>
        <mxCell id="fzmC69lv0-OHPau7h5W_-69" value="Controlador de fluxo de massa e pressÃ£o" style="shape=cube;whiteSpace=wrap;html=1;boundedLbl=1;backgroundOutline=1;darkOpacity=0.05;darkOpacity2=0.1;fontSize=18;fontColor=default;strokeColor=default;fillColor=#CCE5FF;horizontal=1;labelBorderColor=none;" vertex="1" parent="1">
          <mxGeometry x="1671" y="640" width="199" height="90" as="geometry" />
        </mxCell>
        <mxCell id="fzmC69lv0-OHPau7h5W_-70" value="" style="rounded=0;whiteSpace=wrap;html=1;labelBorderColor=none;fontSize=16;fontColor=default;strokeColor=default;fillColor=#CCE5FF;gradientColor=none;glass=0;opacity=40;" vertex="1" parent="1">
          <mxGeometry x="1840" y="262.5" width="100" height="287.5" as="geometry" />
        </mxCell>
        <mxCell id="fzmC69lv0-OHPau7h5W_-73" value="" style="rounded=0;whiteSpace=wrap;html=1;glass=0;labelBorderColor=none;fontSize=16;fontColor=default;strokeColor=default;fillColor=#CCE5FF;gradientColor=none;opacity=40;" vertex="1" parent="1">
          <mxGeometry x="1500" y="510" width="120" height="60" as="geometry" />
        </mxCell>
      </root>
    </mxGraphModel>
  </diagram>
</mxfile>
